<svg xmlns="http://www.w3.org/2000/svg" viewBox="0 0 519.89 62.15"><defs><style>.cls-1{fill:#040000;}</style></defs><g id="レイヤー_2" data-name="レイヤー 2"><g id="レイヤー_1-2" data-name="レイヤー 1"><path class="cls-1" d="M0,26.08C0,10.91,7.15,2.41,18.81,2.41c7.76,0,13,3.51,16,10.17L29,15.78c-1.67-4.31-4.87-7.15-10.17-7.15-7,0-11.41,5.31-11.41,13.94v6.78C7.4,38,11.78,43,18.81,43c5.42,0,8.87-3.14,10.6-7.64L35,38.72c-3,6.54-8.45,10.48-16.21,10.48C7.15,49.2,0,41.25,0,26.08Z"/><path class="cls-1" d="M40.92,4.93v-1c0-2.1,1.24-3.52,4-3.52s4,1.42,4,3.52v1c0,2-1.23,3.46-4,3.46S40.92,7,40.92,4.93Zm.62,43.47V14.8h6.72V48.4Z"/><path class="cls-1" d="M57.32,48.4V14.8H64v5.49h.24c1.48-3.64,4.38-6.23,9.5-6.23,6.9,0,11,4.68,11,13V48.4H78V27.93c0-5.42-2.16-8.2-6.53-8.2-3.89,0-7.46,1.91-7.46,6V48.4Z"/><path class="cls-1" d="M91.6,31.57c0-10.67,5.86-17.51,15.29-17.51,9.74,0,14.86,7.27,14.86,16.71v2.46H98.57v1.18c0,5.48,3.2,9.24,9.06,9.24a10,10,0,0,0,9-5.24l4,3.83c-2.41,4.19-7.28,7-13.57,7C97.52,49.2,91.6,42.3,91.6,31.57Zm7-2.78h16.09v-.61c0-5.37-3-8.88-7.71-8.88-4.93,0-8.38,3.7-8.38,9.06Z"/><path class="cls-1" d="M128.88,48.4V14.8h6.72v5.49h.25c1.42-3.4,4-6.23,9.12-6.23,4.51,0,8.27,2.1,9.93,6.78h.19c1.23-3.76,4.74-6.78,10.23-6.78,6.78,0,10.61,4.68,10.61,13V48.4h-6.72V27.93c0-5.42-2-8.2-6.36-8.2-3.7,0-7.09,1.91-7.09,6V48.4H149V27.93c0-5.49-2-8.2-6.35-8.2-3.57,0-7.09,1.91-7.09,6V48.4Z"/><path class="cls-1" d="M203.1,29.1,203,26.2c0-4.25-2.28-6.72-7.09-6.72a9,9,0,0,0-8.14,4.69l-4-3.64C186,16.77,189.91,14,196.32,14c8.63,0,13.44,4.31,13.44,11.71v17.2h3.58V48.4h-3.7a6.23,6.23,0,0,1-6.54-5.61"/><path class="cls-1" d="M266.66,11.53H254.14V48.4h-9.37V11.53H232.25V3.21h34.41Z"/><path class="cls-1" d="M285.18,28.73,285,26.45c0-3.45-1.72-5.61-5.85-5.61A8.32,8.32,0,0,0,271.72,25l-5.43-4.81c2.65-3.94,6.54-6.47,13.5-6.47,9.43,0,14.37,4.44,14.37,12.33V41.31h3.21V48.4h-5.06a7,7,0,0,1-7.12-5.87v-.77"/><path class="cls-1" d="M303.17,48.4V14.49h9.13v5.67h.3c1.3-3.57,4.14-6.47,9.44-6.47,7,0,10.72,4.93,10.72,13.44V48.4h-9.12V27.87c0-4.5-1.42-6.78-5.06-6.78-3.26,0-6.28,1.66-6.28,5.18V48.4Z"/><path class="cls-1" d="M373,31.45c0-10.73,5.74-17.76,15.85-17.76,11,0,15.6,8,15.6,17.26v2.78h-22v.61c0,4.69,2.53,7.71,7.71,7.71,4.06,0,6.41-2,8.5-4.32l4.63,5.55c-2.9,3.64-7.89,5.92-14.12,5.92C379,49.2,373,42.24,373,31.45Zm9.44-3.09h12.58v-.61c0-4.44-2.1-7.34-6.05-7.34s-6.53,3-6.53,7.4Z"/><path class="cls-1" d="M410.74,48.4V14.49h9.13V21.7h.31c.8-3.63,3.45-7.21,8.75-7.21h1.73V23h-2.47c-5.55,0-8.32,1.35-8.32,5.24V48.4Z"/><path class="cls-1" d="M434.92,5.86V4.5c0-2.59,1.6-4.5,5.3-4.5s5.31,1.91,5.31,4.5V5.86c0,2.59-1.61,4.5-5.31,4.5S434.92,8.45,434.92,5.86Zm.74,42.54V14.49h9.12V48.4Z"/><path class="cls-1" d="M452.84,48.4V14.49H462v5.67h.31c1.29-3.57,4.13-6.47,9.43-6.47,7,0,10.73,4.93,10.73,13.44V48.4h-9.13V27.87c0-4.5-1.42-6.78-5.05-6.78-3.27,0-6.29,1.66-6.29,5.18V48.4Z"/><path class="cls-1" d="M488.45,31.45c0-10.73,5.73-17.76,15.84-17.76,11,0,15.6,8,15.6,17.26v2.78h-22v.61c0,4.69,2.53,7.71,7.71,7.71,4.07,0,6.41-2,8.51-4.32l4.62,5.55c-2.9,3.64-7.89,5.92-14.12,5.92C494.37,49.2,488.45,42.24,488.45,31.45Zm9.43-3.09h12.58v-.61c0-4.44-2.1-7.34-6-7.34s-6.54,3-6.54,7.4Z"/><path class="cls-1" d="M194.11,28.6a9.79,9.79,0,1,0,9.79,9.78A9.78,9.78,0,0,0,194.11,28.6Zm-5.57,12.19a2.41,2.41,0,1,1,2.4-2.41A2.4,2.4,0,0,1,188.54,40.79Zm5.57,5.57a2.4,2.4,0,1,1,2.41-2.4A2.4,2.4,0,0,1,194.11,46.36Zm-1.65-8A1.66,1.66,0,1,1,194.11,40,1.65,1.65,0,0,1,192.46,38.38Zm1.65-3.17a2.41,2.41,0,1,1,2.41-2.4A2.4,2.4,0,0,1,194.11,35.21Zm5.58,5.58a2.41,2.41,0,1,1,2.4-2.41A2.4,2.4,0,0,1,199.69,40.79Z"/><path class="cls-1" d="M276,27.83a10.29,10.29,0,1,0,10.28,10.29A10.29,10.29,0,0,0,276,27.83Zm-5.86,12.81a2.53,2.53,0,1,1,2.53-2.52A2.52,2.52,0,0,1,270.13,40.64ZM276,46.5A2.53,2.53,0,1,1,278.51,44,2.52,2.52,0,0,1,276,46.5Zm-1.74-8.38A1.74,1.74,0,1,1,276,39.85,1.74,1.74,0,0,1,274.25,38.12ZM276,34.78a2.53,2.53,0,1,1,2.52-2.52A2.52,2.52,0,0,1,276,34.78Zm5.86,5.86a2.53,2.53,0,1,1,2.52-2.52A2.52,2.52,0,0,1,281.85,40.64Z"/><path class="cls-1" d="M363,23a24.61,24.61,0,0,1-4-2.4,25.09,25.09,0,0,1-3.45-3.09c-.34-.37-.67-.76-1-1.15a13.37,13.37,0,0,0-1.42-.07c-7.09,0-12.83,4.89-12.83,10.93s5.74,10.93,12.83,10.93S366,33.29,366,27.25a9.45,9.45,0,0,0-.55-3.18l-.26-.1A21.71,21.71,0,0,1,363,23Z"/><path class="cls-1" d="M367.6,24.14a4.23,4.23,0,0,0-.13-.71,8.79,8.79,0,0,0-.46-1.31,11.92,11.92,0,0,0-1.31-2.26A17.06,17.06,0,0,0,357.84,14a12.82,12.82,0,0,0-2.53-.62,7.94,7.94,0,0,0-1.39-.07,3.75,3.75,0,0,0-.73.07,2.49,2.49,0,0,0-.37.09l-.18.08-.08.06-.07.06.07,0a.18.18,0,0,1,.07.05l.11.12a2.43,2.43,0,0,1,.2.25c.13.16.25.34.38.51.24.34.48.68.73,1l.54.7c5.16.48,9.39,3.57,10.85,7.68l.91.32.6.22a6.77,6.77,0,0,1,.64.27A2.29,2.29,0,0,0,367.6,24.14Z"/><path class="cls-1" d="M353.45,12c0,.59,0,1.18,0,1.77l-.07.89a2.91,2.91,0,0,1-.07.88V15.4a1.7,1.7,0,0,1-.06.74,2,2,0,0,1-.14.38,2,2,0,0,1-.26.38h-.17a3,3,0,0,1-.41-.34,3.31,3.31,0,0,1-.31-.36,2.47,2.47,0,0,1-.37-.72v-.09a3.69,3.69,0,0,1,.4-.86l.4-.87c.29-.57.58-1.15.92-1.72Z"/><path class="cls-1" d="M360,41.19h-9.56c-2.9,0-4.19-.93-4.19-2.59a3.11,3.11,0,0,1,1.19-2.4l-2.85-.75c-2.81.81-5.37,2.57-5.37,5.74A5.59,5.59,0,0,0,344,47v.68c-3.89.62-6.23,2.84-6.23,6.54,0,4.93,4.25,7.95,16,7.95,13.44,0,18.12-4,18.12-11.16C371.83,44.83,368.26,41.19,360,41.19Zm-4.07,14.92h-4c-5.24,0-7.15-1.3-7.15-3.89A4.06,4.06,0,0,1,346.25,49h11.59c3.94,0,5.42,1.1,5.42,3.26C363.26,54.88,361.11,56.11,355.93,56.11Z"/></g></g></svg>